<?xml version="1.0" standalone="no"?><!-- Generator: Adobe Fireworks CS6, Export SVG Extension by Aaron Beall (http://fireworks.abeall.com) . Version: 0.6.1  --><!DOCTYPE svg PUBLIC "-//W3C//DTD SVG 1.1//EN" "http://www.w3.org/Graphics/SVG/1.1/DTD/svg11.dtd"><svg id="logo-Seite%201" viewBox="0 0 185 27" style="background-color:#ffffff00" version="1.1"	xmlns="http://www.w3.org/2000/svg" xmlns:xlink="http://www.w3.org/1999/xlink" xml:space="preserve"	x="0px" y="0px" width="185px" height="27px">	<defs>		<linearGradient id="gradient1" x1="32.7006%" y1="97.5879%" x2="67.4065%" y2="2.1146%">			<stop stop-color="#ff9900" stop-opacity="1" offset="0%"/>			<stop stop-color="#ff9900" stop-opacity="1" offset="1%"/>			<stop stop-color="#ffbb22" stop-opacity="1" offset="99%"/>			<stop stop-color="#ffbb22" stop-opacity="1" offset="100%"/>		</linearGradient>		<linearGradient id="gradient2" x1="40.1507%" y1="84.6289%" x2="58.1348%" y2="21.4252%">			<stop stop-color="#ff9900" stop-opacity="1" offset="0%"/>			<stop stop-color="#ff9900" stop-opacity="1" offset="1%"/>			<stop stop-color="#ffbb22" stop-opacity="1" offset="99%"/>			<stop stop-color="#ffbb22" stop-opacity="1" offset="100%"/>		</linearGradient>		<linearGradient id="gradient3" x1="49.9982%" y1="97.5001%" x2="49.9982%" y2="4.4672%">			<stop stop-color="#ff9900" stop-opacity="1" offset="0%"/>			<stop stop-color="#ff9900" stop-opacity="1" offset="1%"/>			<stop stop-color="#ffbb22" stop-opacity="1" offset="99%"/>			<stop stop-color="#ffbb22" stop-opacity="1" offset="100%"/>		</linearGradient>	</defs>	<g id="Ebene%201">		<g>			<path d="M 114.5465 8.94 C 114.5683 8.82 114.5555 8.7043 114.4987 8.6099 C 114.4461 8.5158 114.3277 8.43 114.1439 8.3657 C 113.9515 8.2971 113.7019 8.2414 113.3779 8.2029 C 113.0582 8.1642 112.6384 8.1429 112.1344 8.1429 C 111.6664 8.1429 111.2855 8.1642 110.9833 8.2029 C 110.6815 8.2414 110.4362 8.2971 110.2438 8.3657 C 110.0557 8.43 109.9113 8.5158 109.8151 8.6099 C 109.7185 8.7043 109.6659 8.82 109.6441 8.94 L 106.1425 25.8126 C 106.1164 25.9415 106.1206 26.0571 106.1775 26.1516 C 106.2301 26.2412 106.3395 26.3228 106.5105 26.3831 C 106.6806 26.4513 106.9217 26.4986 107.2239 26.5246 C 107.5257 26.5585 107.9065 26.5714 108.3793 26.5714 C 108.8653 26.5714 109.2765 26.5585 109.618 26.5246 C 109.9506 26.4986 110.2263 26.4513 110.4362 26.3831 C 110.6508 26.3228 110.8085 26.2412 110.9094 26.1516 C 111.0055 26.0571 111.0756 25.9415 111.1017 25.8126 L 114.5465 8.94 ZM 116.3192 1.8129 C 116.2974 1.4914 116.1969 1.2257 116.0127 1.0158 C 115.8203 0.81 115.5403 0.6642 115.168 0.57 C 114.8004 0.4757 114.323 0.4286 113.7412 0.4286 C 113.1983 0.4286 112.7478 0.4757 112.3888 0.57 C 112.025 0.6642 111.7142 0.81 111.4693 1.0158 C 111.2244 1.2257 111.0273 1.4914 110.8739 1.8129 C 110.7256 2.1343 110.6029 2.5329 110.5195 3 C 110.4101 3.48 110.3708 3.8915 110.3973 4.2171 C 110.4234 4.5515 110.5195 4.8129 110.6815 5.0144 C 110.8478 5.2157 111.0927 5.3657 111.4167 5.4429 C 111.7365 5.5329 112.1519 5.5714 112.6687 5.5714 C 113.2552 5.5714 113.7545 5.5329 114.1524 5.4429 C 114.5465 5.3657 114.8838 5.2157 115.1552 5.0144 C 115.4309 4.8129 115.6536 4.5515 115.8203 4.2171 C 115.9819 3.8915 116.1136 3.48 116.2097 3 C 116.3063 2.5329 116.341 2.1343 116.3192 1.8129 Z" fill="#005588"/>			<path d="M 130.0634 8.3486 C 129.9886 8.2157 129.8445 8.1429 129.6342 8.1429 L 125.9705 8.1429 L 126.7977 4.2514 C 126.8242 4.1229 126.8024 4.0114 126.7412 3.9042 C 126.6797 3.7971 126.5617 3.7115 126.3907 3.6343 C 126.2159 3.57 125.9705 3.5144 125.647 3.48 C 125.3187 3.4499 124.916 3.4286 124.4386 3.4286 C 123.9572 3.4286 123.5678 3.4499 123.2528 3.48 C 122.9373 3.5144 122.6877 3.57 122.4868 3.6343 C 122.2898 3.7115 122.1453 3.7971 122.0491 3.9042 C 121.9525 4.0114 121.891 4.1229 121.8649 4.2514 L 121.0378 8.1429 L 114.043 8.1429 C 113.7934 8.1429 113.5835 8.2628 113.4044 8.5028 C 113.2287 8.7472 113.0889 9.0258 112.9795 9.3599 C 112.8701 9.6943 112.791 10.0371 112.7431 10.3843 C 112.6952 10.7356 112.673 11.01 112.673 11.2242 C 112.673 11.5329 112.7123 11.73 112.7957 11.8372 C 112.879 11.9443 113.0098 12 113.1855 12 L 120.2149 12 L 118.4333 20.4384 C 118.3893 20.6058 118.3504 20.7941 118.3239 21.0084 L 118.2192 21.6299 C 118.1837 21.8358 118.1666 22.0329 118.1529 22.2171 C 118.1358 22.4058 118.1315 22.5728 118.1315 22.7059 C 118.1315 23.4856 118.232 24.1415 118.438 24.6772 C 118.6436 25.2129 118.9587 25.654 119.3703 26.0014 C 119.7772 26.3484 120.285 26.5974 120.8886 26.7598 C 121.4887 26.9188 122.1932 27 122.9852 27 C 123.3268 27 123.6773 26.9741 124.0188 26.9397 C 124.3599 26.8929 124.6882 26.8326 124.9904 26.7644 C 125.2922 26.6874 125.5508 26.5974 125.7696 26.5028 C 125.9885 26.4086 126.1586 26.3015 126.268 26.1943 C 126.3775 26.0872 126.483 25.9198 126.5788 25.6929 C 126.6711 25.4657 126.763 25.2171 126.8459 24.9429 C 126.9246 24.6688 126.9862 24.3901 127.043 24.0942 C 127.0913 23.7987 127.1174 23.5371 127.1174 23.3103 C 127.1174 23.096 127.0828 22.9415 127.0165 22.8474 C 126.9468 22.7528 126.8725 22.7013 126.7763 22.7013 C 126.6797 22.7013 126.5788 22.7273 126.4694 22.7657 C 126.3599 22.8131 126.2334 22.8687 126.0847 22.9202 C 125.9359 22.98 125.7649 23.0357 125.5593 23.0742 C 125.3537 23.1215 125.1131 23.1429 124.828 23.1429 C 124.2808 23.1429 123.8829 23.0144 123.6379 22.7616 C 123.384 22.5084 123.2614 22.1058 123.2614 21.5571 C 123.2614 21.3813 123.2746 21.1456 123.3097 20.8669 C 123.3357 20.5844 123.3751 20.3358 123.4191 20.1299 L 125.1477 12 L 128.8815 12 C 129.017 12 129.1486 11.94 129.2713 11.82 C 129.3936 11.6999 129.503 11.5501 129.5996 11.3657 C 129.6958 11.1814 129.7787 10.98 129.8531 10.7528 C 129.9279 10.5258 129.9886 10.2985 130.0373 10.0714 C 130.0805 9.8444 130.1112 9.6343 130.142 9.4413 C 130.1685 9.2486 130.1813 9.0858 130.1813 8.9529 C 130.1813 8.6913 130.142 8.49 130.0634 8.3486 Z" fill="#005588"/>			<path d="M 52.252 2.1642 C 52.1819 2.07 52.0549 1.98 51.8666 1.9158 C 51.6828 1.8472 51.4247 1.7957 51.0831 1.7614 C 50.7418 1.7356 50.2953 1.7143 49.757 1.7143 C 49.2579 1.7143 48.8377 1.7356 48.5095 1.7614 C 48.1769 1.7957 47.8967 1.8428 47.6603 1.9072 C 47.4284 1.9757 47.2444 2.0615 47.0957 2.1772 C 46.9424 2.2885 46.8067 2.4258 46.6842 2.5714 L 37.418 13.0158 L 39.5627 2.4986 C 39.5845 2.3657 39.5627 2.2414 39.4971 2.1514 C 39.427 2.0571 39.2913 1.9757 39.0945 1.9072 C 38.8886 1.8428 38.6129 1.7957 38.2671 1.7614 C 37.9083 1.7356 37.4661 1.7143 36.919 1.7143 C 36.455 1.7143 36.0698 1.7356 35.7678 1.7614 C 35.4701 1.7957 35.2162 1.8428 35.0237 1.9072 C 34.8268 1.9757 34.6823 2.0571 34.5859 2.1514 C 34.4898 2.2414 34.4415 2.3657 34.4284 2.4986 L 29.6136 25.7746 C 29.5743 25.9156 29.5786 26.0357 29.6487 26.1299 C 29.71 26.2241 29.8237 26.3103 29.9988 26.3785 C 30.1608 26.4429 30.3927 26.4986 30.6949 26.5246 C 30.9881 26.5585 31.3732 26.5714 31.8503 26.5714 C 32.3844 26.5714 32.8263 26.5585 33.1897 26.5246 C 33.5442 26.4986 33.842 26.4429 34.0739 26.3785 C 34.306 26.3103 34.4765 26.2241 34.5947 26.1299 C 34.7041 26.0357 34.7785 25.9156 34.8048 25.7746 L 37.1641 14.0487 L 42.4384 25.7143 C 42.4867 25.8683 42.5523 26.0014 42.6442 26.1169 C 42.7318 26.2287 42.8761 26.3186 43.0644 26.3831 C 43.257 26.4513 43.5239 26.4986 43.8522 26.5246 C 44.1805 26.5585 44.6182 26.5714 45.161 26.5714 C 45.7257 26.5714 46.1985 26.5585 46.5748 26.5158 C 46.9424 26.4773 47.2401 26.4258 47.459 26.3442 C 47.6779 26.2713 47.8266 26.1688 47.9097 26.0487 C 47.9886 25.9286 48.0367 25.7829 48.0367 25.5984 C 48.0367 25.4531 48.0104 25.2857 47.958 25.0974 C 47.901 24.9174 47.8266 24.6943 47.726 24.4415 L 42.6835 13.4615 L 51.2802 4.2257 C 51.6566 3.8228 51.928 3.4886 52.103 3.2356 C 52.2738 2.9787 52.3614 2.7386 52.3614 2.5114 C 52.3614 2.3785 52.3219 2.2586 52.252 2.1642 Z" fill="#005588"/>			<path d="M 65.3875 8.1943 C 65.3086 8.1301 65.1992 8.07 65.0592 8.01 C 64.9235 7.9499 64.766 7.8942 64.591 7.8558 C 64.4114 7.8129 64.2276 7.7829 64.0218 7.7528 C 63.8162 7.7271 63.6191 7.7143 63.4266 7.7143 C 62.9496 7.7143 62.4635 7.8129 61.969 8.01 C 61.4787 8.2029 61.0061 8.4729 60.5464 8.8115 C 60.0912 9.1586 59.658 9.5615 59.2466 10.0329 C 58.8394 10.5 58.4806 11.0144 58.1741 11.5714 L 58.6248 8.8801 C 58.6511 8.76 58.6381 8.6442 58.5988 8.5501 C 58.5504 8.4557 58.4543 8.3785 58.3098 8.3228 C 58.161 8.2713 57.964 8.2242 57.7101 8.19 C 57.4474 8.1642 57.1191 8.1429 56.7165 8.1429 C 56.3489 8.1429 56.0249 8.1642 55.7579 8.19 C 55.4953 8.2242 55.2764 8.2713 55.1101 8.3228 C 54.9394 8.3785 54.8081 8.4557 54.7293 8.5501 C 54.6374 8.6442 54.5848 8.76 54.563 8.8801 L 51.0613 25.8126 C 51.035 25.9415 51.0395 26.0571 51.0964 26.1516 C 51.149 26.2412 51.2584 26.3228 51.4289 26.3831 C 51.5997 26.4513 51.8404 26.4986 52.1426 26.5246 C 52.4445 26.5585 52.8252 26.5714 53.298 26.5714 C 53.784 26.5714 54.1954 26.5585 54.5367 26.5246 C 54.8695 26.4986 55.1452 26.4513 55.3553 26.3831 C 55.5696 26.3228 55.7274 26.2412 55.828 26.1516 C 55.9242 26.0571 55.9943 25.9415 56.0206 25.8126 L 57.5744 18.2059 C 57.7233 17.4429 57.9683 16.7143 58.3228 16.0158 C 58.6731 15.3214 59.0713 14.7045 59.5135 14.1814 C 59.96 13.6586 60.424 13.23 60.9185 12.9086 C 61.4088 12.5872 61.8683 12.4286 62.306 12.4286 C 62.5249 12.4286 62.7219 12.4543 62.9012 12.4972 C 63.072 12.5443 63.2295 12.5872 63.3785 12.6343 L 63.7767 12.7713 C 63.8906 12.8186 64.0088 12.8358 64.1312 12.8358 C 64.2757 12.8358 64.4114 12.75 64.5427 12.5615 C 64.6653 12.3815 64.779 12.1456 64.8754 11.8544 C 64.9716 11.5587 65.0592 11.2414 65.1424 10.9028 C 65.2255 10.5686 65.2868 10.2386 65.3437 9.9172 C 65.3963 9.5958 65.4356 9.3129 65.4664 9.0728 C 65.4927 8.8328 65.5057 8.6658 65.5057 8.5714 C 65.5057 8.3956 65.4664 8.2758 65.3875 8.1943 Z" fill="#005588"/>			<path d="M 97.5285 16.5515 C 97.349 17.4086 97.0643 18.2059 96.6749 18.9559 C 96.2765 19.7059 95.8255 20.3571 95.3134 20.9058 C 94.7928 21.4545 94.2367 21.8956 93.6502 22.2259 C 93.0638 22.5515 92.4816 22.7143 91.9214 22.7143 C 91.2824 22.7143 90.8184 22.4787 90.5251 22.0028 C 90.2319 21.5274 90.0874 20.82 90.0874 19.8813 C 90.0874 19.3544 90.1268 18.7885 90.2187 18.2013 C 90.2975 17.6099 90.4288 17.0144 90.595 16.4272 C 90.757 15.8358 90.9716 15.2658 91.221 14.73 C 91.4705 14.1943 91.7639 13.7273 92.1052 13.3242 C 92.4423 12.9258 92.8231 12.6044 93.2476 12.3599 C 93.672 12.1199 94.1362 12 94.6436 12 C 95.375 12 96.0183 12.1672 96.5787 12.4886 C 97.1387 12.8186 97.6469 13.2985 98.1107 13.9369 L 97.5285 16.5515 ZM 105.8928 0.8186 C 105.9146 0.6943 105.9018 0.5828 105.8449 0.4757 C 105.7924 0.3729 105.6654 0.2871 105.4902 0.2229 C 105.3068 0.1542 105.0439 0.0986 104.7156 0.06 C 104.3873 0.0213 103.9629 0 103.4465 0 C 102.9909 0 102.6233 0.0213 102.33 0.06 C 102.0278 0.0986 101.7872 0.1542 101.5991 0.2229 C 101.4063 0.2871 101.2708 0.3729 101.1875 0.4757 C 101.1045 0.5828 101.0519 0.6943 101.0302 0.8186 L 99.034 9.7885 C 98.8065 9.51 98.5351 9.24 98.2201 8.9872 C 97.8961 8.73 97.5413 8.5114 97.1519 8.3228 C 96.7625 8.1343 96.3338 7.9886 95.8606 7.8815 C 95.3878 7.7743 94.8933 7.7143 94.3812 7.7143 C 93.239 7.7143 92.2147 7.9158 91.2999 8.31 C 90.3807 8.7043 89.5754 9.2356 88.8705 9.8956 C 88.1571 10.5686 87.5574 11.3314 87.0498 12.2015 C 86.5462 13.0714 86.1218 13.9759 85.7935 14.9142 C 85.4652 15.8488 85.2201 16.8001 85.0668 17.7514 C 84.9093 18.7027 84.835 19.5942 84.835 20.4258 C 84.835 20.9272 84.8612 21.4369 84.9311 21.9513 C 84.9925 22.4741 85.1019 22.9754 85.2594 23.4559 C 85.4084 23.9397 85.614 24.4026 85.8766 24.8358 C 86.1348 25.2727 86.4543 25.6456 86.8527 25.9671 C 87.2511 26.2885 87.7194 26.5371 88.2665 26.7254 C 88.8137 26.9054 89.4527 27 90.1881 27 C 90.9629 27 91.7156 26.8803 92.4465 26.6443 C 93.1775 26.4086 93.8473 26.1044 94.4513 25.7273 C 95.051 25.3544 95.5716 24.9383 96.0183 24.48 C 96.456 24.0259 96.7753 23.5974 96.9814 23.1814 L 96.303 25.9286 C 96.2765 26.0487 96.285 26.1558 96.3338 26.237 C 96.3816 26.3186 96.4821 26.3831 96.6398 26.43 C 96.7975 26.4856 97.0074 26.5158 97.2699 26.5371 C 97.5285 26.5626 97.8658 26.5714 98.2727 26.5714 C 99.0387 26.5714 99.5944 26.5246 99.9359 26.4258 C 100.277 26.3312 100.474 26.1642 100.5309 25.9286 L 105.8928 0.8186 Z" fill="#005588"/>			<path d="M 143.4789 13.8901 C 143.2733 14.1943 142.9497 14.4643 142.5073 14.6916 C 142.061 14.9188 141.4745 15.0988 140.7479 15.2356 C 140.0255 15.3687 139.1197 15.4286 138.0383 15.4286 L 136.3443 15.4286 C 136.5153 14.8372 136.7427 14.2759 137.0274 13.7528 C 137.3163 13.23 137.6574 12.7843 138.0558 12.3942 C 138.4499 12.0128 138.9137 11.7129 139.4433 11.4856 C 139.9644 11.2586 140.5551 11.1429 141.2292 11.1429 C 142.0563 11.1429 142.6911 11.31 143.1288 11.6442 C 143.5665 11.9787 143.7853 12.3942 143.7853 12.8956 C 143.7853 13.2514 143.6849 13.5814 143.4789 13.8901 ZM 148.1889 10.7271 C 147.9171 10.1572 147.5059 9.6514 146.9459 9.2015 C 146.3851 8.7514 145.6721 8.3915 144.8052 8.1215 C 143.9298 7.8558 142.8881 7.7143 141.6844 7.7143 C 140.3102 7.7143 139.089 7.9158 138.0208 8.31 C 136.944 8.7043 136.0032 9.2356 135.1889 9.8915 C 134.3656 10.5471 133.6787 11.31 133.1012 12.18 C 132.5276 13.0501 132.0549 13.9629 131.6915 14.9142 C 131.3239 15.8655 131.0653 16.8298 130.8995 17.8071 C 130.737 18.7843 130.6541 19.7013 130.6541 20.5584 C 130.6541 21.6688 130.8033 22.6331 131.1183 23.4429 C 131.4333 24.2612 131.8976 24.9258 132.5233 25.4443 C 133.1444 25.9671 133.9241 26.3659 134.8521 26.6183 C 135.7843 26.8669 136.8696 27 138.1169 27 C 138.8701 27 142.3978 26.7129 144.0743 25.2857 C 145.558 24.0213 145.0066 22.0455 144.8796 21.9643 C 144.7877 21.9045 144.6479 21.8442 144.4855 21.8701 C 144.3282 21.8956 142.6081 22.9671 139.8066 23.25 C 138.2221 23.4086 136.8564 22.8599 136.305 22.2987 C 135.7403 21.737 135.3902 19.7013 135.6266 18.4286 L 137.4604 18.4286 C 139.3993 18.4286 141.0715 18.2955 142.4722 18.013 C 143.8683 17.7384 145.0241 17.3358 145.9388 16.8131 C 146.8493 16.2941 147.5191 15.6688 147.9525 14.9443 C 148.3813 14.2241 148.6001 13.4056 148.6001 12.4972 C 148.6001 11.8929 148.4642 11.3015 148.1889 10.7271 Z" fill="#005588"/>			<path d="M 78.6983 13.8901 C 78.4925 14.1943 78.1687 14.4643 77.7265 14.6916 C 77.28 14.9188 76.6935 15.0988 75.9669 15.2356 C 75.2447 15.3687 74.3387 15.4286 73.2575 15.4286 L 71.5635 15.4286 C 71.7343 14.8372 71.9619 14.2759 72.2464 13.7528 C 72.5353 13.23 72.8766 12.7843 73.275 12.3942 C 73.6689 12.0128 74.1329 11.7129 74.6625 11.4856 C 75.1834 11.2586 75.7743 11.1429 76.4484 11.1429 C 77.2757 11.1429 77.9103 11.31 78.348 11.6442 C 78.7857 11.9787 79.0045 12.3942 79.0045 12.8956 C 79.0045 13.2514 78.9039 13.5814 78.6983 13.8901 ZM 83.4079 10.7271 C 83.1365 10.1572 82.7251 9.6514 82.1649 9.2015 C 81.6045 8.7514 80.8911 8.3915 80.0244 8.1215 C 79.149 7.8558 78.1073 7.7143 76.9036 7.7143 C 75.5292 7.7143 74.308 7.9158 73.24 8.31 C 72.1632 8.7043 71.2222 9.2356 70.4081 9.8915 C 69.5851 10.5471 68.8979 11.31 68.3202 12.18 C 67.7468 13.0501 67.274 13.9629 66.9107 14.9142 C 66.5431 15.8655 66.2847 16.8298 66.1184 17.8071 C 65.9565 18.7843 65.8733 19.7013 65.8733 20.5584 C 65.8733 21.6688 66.0223 22.6331 66.3373 23.4429 C 66.6525 24.2612 67.1165 24.9258 67.7423 25.4443 C 68.3638 25.9671 69.1431 26.3659 70.0711 26.6183 C 71.0033 26.8669 72.0888 27 73.3363 27 C 74.0891 27 77.617 26.7129 79.2935 25.2857 C 80.7774 24.0213 80.2258 22.0455 80.0988 21.9643 C 80.0069 21.9045 79.8669 21.8442 79.7049 21.8701 C 79.5474 21.8956 77.8271 22.9671 75.0258 23.25 C 73.4413 23.4086 72.0756 22.8599 71.5242 22.2987 C 70.9595 21.737 70.6094 19.7013 70.8458 18.4286 L 72.6798 18.4286 C 74.6187 18.4286 76.2909 18.2955 77.6914 18.013 C 79.0877 17.7384 80.2433 17.3358 81.158 16.8131 C 82.0685 16.2941 82.7383 15.6688 83.1715 14.9443 C 83.6005 14.2241 83.8193 13.4056 83.8193 12.4972 C 83.8193 11.8929 83.6836 11.3015 83.4079 10.7271 Z" fill="#005588"/>			<path d="M 165.522 9.6044 C 165.3993 9.4886 165.2548 9.3558 165.0971 9.1929 C 164.9398 9.0385 164.6992 8.8671 164.3841 8.6786 C 164.0644 8.49 163.6968 8.3228 163.2766 8.1772 C 162.8607 8.0357 162.4012 7.92 161.9109 7.8428 C 161.4121 7.7614 160.9043 7.7143 160.3832 7.7143 C 159.0526 7.7143 157.8749 7.92 156.8555 8.3314 C 155.8356 8.7472 154.9426 9.2871 154.1681 9.9643 C 153.3884 10.6456 152.7319 11.4258 152.1984 12.3087 C 151.6641 13.1913 151.2264 14.1085 150.8938 15.0473 C 150.557 15.9856 150.3159 16.9202 150.1672 17.8585 C 150.0184 18.7973 149.9483 19.6545 149.9483 20.43 C 149.9483 22.5988 150.4869 24.2356 151.5812 25.3372 C 152.6707 26.4513 154.3121 27 156.5007 27 C 157.1226 27 157.6432 26.9016 158.2254 26.8117 C 158.7986 26.7129 159.3415 26.5974 159.8318 26.4555 C 160.3263 26.3103 162.5675 25.1786 163.0317 24.2658 C 163.5305 23.2885 163.5173 22.3242 163.5173 22.1058 C 163.5173 21.8915 163.3685 21.6688 163.2368 21.5487 C 163.1013 21.4369 162.8872 21.3729 162.6025 21.3729 C 162.3751 21.3729 162.1297 21.4629 161.8626 21.6345 C 161.5954 21.8098 161.2761 22.0116 160.9043 22.2259 C 160.5367 22.4402 160.0857 22.6415 159.5646 22.8214 C 159.0393 23.0014 158.4922 23.1429 157.7655 23.1429 C 156.8773 23.1429 156.225 22.8687 155.818 22.32 C 155.4064 21.7713 155.2008 20.9741 155.2008 19.9156 C 155.2008 19.5 155.2359 19.0028 155.3017 18.4369 C 155.3718 17.8715 155.4812 17.2759 155.6471 16.6545 C 155.8095 16.0371 156.0147 15.4202 156.26 14.8116 C 156.5054 14.2115 156.8161 13.6672 157.197 13.1871 C 157.5732 12.7115 158.0198 12.3214 158.5315 12.0213 C 159.0393 11.7257 159.6172 11.5714 160.2609 11.5714 C 160.891 11.5714 161.4121 11.6658 161.8143 11.8458 C 162.2174 12.0258 162.5542 12.2271 162.8214 12.4413 C 163.0881 12.6556 163.3116 12.8486 163.4912 13.0243 C 163.666 13.1999 163.8588 13.2857 164.0558 13.2857 C 164.305 13.2857 164.5286 13.1786 164.7342 12.9515 C 164.9398 12.7242 165.1108 12.4413 165.2463 12.1071 C 165.3861 11.7729 165.4955 11.4086 165.5746 11.0357 C 165.6579 10.6586 165.7058 10.3242 165.7058 10.0329 C 165.7058 9.8657 165.6442 9.7242 165.522 9.6044 Z" fill="#005588"/>			<path d="M 184.7068 15.3001 C 184.794 14.8585 184.8641 14.4086 184.9171 13.9545 C 184.9735 13.5086 185 13.0501 185 12.5958 C 185 11.8843 184.9124 11.2287 184.7328 10.6329 C 184.5537 10.0371 184.2605 9.5229 183.8574 9.0858 C 183.4462 8.6572 182.9252 8.3186 182.2994 8.0742 C 181.6689 7.8342 180.8943 7.7143 179.9792 7.7143 C 179.2965 7.7143 178.6314 7.8214 177.9881 8.0271 C 177.3401 8.2414 176.7361 8.5114 176.1847 8.8372 C 175.6243 9.1758 175.1298 9.5443 174.7006 9.9429 C 174.2676 10.3544 173.9261 10.7614 173.6807 11.1642 C 173.7773 10.9371 173.8735 10.68 173.9829 10.3843 C 174.0838 10.0972 174.1885 9.7971 174.289 9.4886 C 174.3898 9.18 174.4865 8.8715 174.5694 8.5587 C 174.6527 8.2414 174.7267 7.9413 174.7968 7.6586 L 176.2676 0.8186 C 176.2941 0.6943 176.2723 0.5828 176.2193 0.4757 C 176.1629 0.3729 176.0398 0.2871 175.8607 0.2229 C 175.6769 0.1542 175.4187 0.0986 175.0905 0.06 C 174.7621 0.0213 174.3287 0 173.8119 0 C 173.3657 0 172.9981 0.0213 172.7006 0.06 C 172.4026 0.0986 172.162 0.1542 171.9696 0.2229 C 171.7811 0.2871 171.6367 0.3729 171.5533 0.4757 C 171.4704 0.5828 171.4178 0.6943 171.396 0.8186 L 166.1435 25.8085 C 166.1174 25.9374 166.1217 26.0487 166.1786 26.1429 C 166.2311 26.237 166.3406 26.3186 166.5111 26.3831 C 166.6821 26.4513 166.9227 26.4986 167.2245 26.5246 C 167.5267 26.5585 167.9076 26.5714 168.3799 26.5714 C 168.8659 26.5714 169.2776 26.5585 169.6191 26.5246 C 169.9516 26.4986 170.2274 26.4513 170.4377 26.3831 C 170.6518 26.3186 170.8095 26.237 170.9104 26.1429 C 171.0062 26.0487 171.0763 25.9374 171.1028 25.8085 L 172.5911 18.1415 C 172.757 17.3098 173.046 16.5213 173.449 15.7713 C 173.8513 15.0259 174.3112 14.3785 174.8233 13.8131 C 175.3354 13.2514 175.8825 12.81 176.4647 12.4886 C 177.0383 12.1672 177.5983 12 178.1326 12 C 178.4472 12 178.7191 12.0471 178.955 12.1415 C 179.1871 12.2356 179.3709 12.3599 179.5154 12.5229 C 179.6599 12.69 179.7603 12.8829 179.8219 13.1099 C 179.8787 13.3372 179.9095 13.5944 179.9095 13.8599 C 179.9095 14.1169 179.892 14.4086 179.8484 14.73 C 179.8086 15.0598 179.7603 15.3558 179.7125 15.6085 L 177.5239 25.8085 C 177.4978 25.9374 177.5154 26.0487 177.5718 26.1429 C 177.6248 26.237 177.7428 26.3186 177.9138 26.3831 C 178.0843 26.4513 178.325 26.4986 178.6314 26.5246 C 178.9379 26.5585 179.3316 26.5714 179.8086 26.5714 C 180.3075 26.5714 180.7191 26.5585 181.0474 26.5246 C 181.3671 26.4986 181.6343 26.4513 181.8394 26.3831 C 182.0455 26.3186 182.1942 26.237 182.2908 26.1429 C 182.3866 26.0487 182.4567 25.9374 182.4832 25.8085 L 184.7068 15.3001 Z" fill="#005588"/>			<path d="M 19.809 9.6429 L 23.3107 9.6429 C 23.7922 9.6429 24.1117 10.0285 24.0198 10.5 L 21.0257 25.9286 C 20.9339 26.4003 20.4656 26.7857 19.9841 26.7857 L 16.4824 26.7857 C 16.0009 26.7857 15.6814 26.4003 15.7733 25.9286 L 18.7673 10.5 C 18.8592 10.0285 19.3275 9.6429 19.809 9.6429 Z" fill="url(#gradient1)"/>			<path d="M 10.6828 16.0714 L 14.1844 16.0714 C 14.6659 16.0714 14.9855 16.4569 14.8936 16.9286 L 13.147 25.9286 C 13.0551 26.4003 12.5868 26.7857 12.1053 26.7857 L 8.6036 26.7857 C 8.1221 26.7857 7.8026 26.4003 7.8945 25.9286 L 9.6411 16.9286 C 9.733 16.4569 10.2012 16.0714 10.6828 16.0714 Z" fill="url(#gradient2)"/>			<path d="M 1.5565 22.5 L 5.0582 22.5 C 5.5397 22.5 5.8592 22.8855 5.7673 23.3571 L 5.2683 25.9286 C 5.1764 26.4003 4.7081 26.7857 4.2266 26.7857 L 0.7249 26.7857 C 0.2434 26.7857 -0.0761 26.4003 0.0158 25.9286 L 0.5148 23.3571 C 0.6067 22.8855 1.075 22.5 1.5565 22.5 Z" fill="url(#gradient3)"/>		</g>	</g></svg>